<?xml version="1.0" encoding="utf-8"?>
<!-- Generator: Adobe Illustrator 19.1.1, SVG Export Plug-In . SVG Version: 6.00 Build 0)  -->
<svg version="1.1" id="Calque_1" xmlns="http://www.w3.org/2000/svg" xmlns:xlink="http://www.w3.org/1999/xlink" x="0px" y="0px"
	 viewBox="0 0 16 16" style="enable-background:new 0 0 16 16;" xml:space="preserve">
<style type="text/css">
	.st0{fill:#040504;}
</style>
<g id="solid">
	<path class="st0" d="M15.8,11.2l0-0.1c0.3-1.5,0.3-3,0-4.5c-0.1-0.4-0.4-0.7-0.8-0.7l-1.7-0.1V5.5c0-0.3-0.3-0.6-0.6-0.6h0V4.5
		C12.6,2,10.6,0,8,0S3.4,2,3.4,4.5v0.4h0C3,4.9,2.8,5.2,2.8,5.5v0.1L1.1,5.8c-0.4,0-0.8,0.3-0.8,0.7c-0.3,1.5-0.3,3,0,4.5l0,0.1
		c0,0.3,0,0.6,0,1c0,1.1,0.1,2.1,0.4,3.2C0.6,15.7,1,16,1.4,16h13.1c0.4,0,0.8-0.3,0.9-0.7c0.2-0.8,0.3-1.7,0.3-2.5c0,0,0,0,0,0v0
		l0,0C15.8,12.2,15.8,11.7,15.8,11.2z M14.9,14.4l0.6-0.9c0,0.5-0.1,1-0.2,1.5L14.9,14.4z M0.8,14.9c-0.1-0.5-0.2-1-0.2-1.5l0.6,0.9
		L0.8,14.9z M0.3,8.9c0-0.2,0-0.3,0-0.5l0.8,1.3l-0.6,1.1C0.4,10.1,0.3,9.5,0.3,8.9z M3.7,5.9l0.5,0l0.9,1.6L4,9.4l-1.2-2L3.7,5.9z
		 M2.6,7.1L1.9,6l1.4-0.1L2.6,7.1z M11.7,4.9L11.7,4.9c-0.3,0-0.6,0.2-0.6,0.5c-0.7,0-1.4-0.1-2-0.1c-1.4,0-2.9,0-4.3,0.1
		c0-0.3-0.3-0.5-0.6-0.5h0V4.5c0-2,1.7-3.6,3.7-3.6s3.7,1.6,3.7,3.6V4.9z M12.3,5.9l0.9,1.6l-1.2,2l-1.2-2l0.9-1.6L12.3,5.9z
		 M12.7,5.9L14.1,6l-0.7,1.1L12.7,5.9z M15.7,8.9c0,0.6-0.1,1.3-0.2,1.9l-0.6-1.1l0.8-1.3C15.7,8.6,15.7,8.7,15.7,8.9z M15.5,11.2
		c-0.1,0.3-0.3,0.4-0.6,0.5l-1.2,0.1l1-1.8L15.5,11.2z M6.8,5.7l1,1.7l-1.2,2l-1.2-2l1-1.7C6.6,5.7,6.7,5.7,6.8,5.7L6.8,5.7z
		 M9.5,5.7l1,1.7l-1.2,2l-1.2-2l1-1.7C9.3,5.7,9.4,5.7,9.5,5.7L9.5,5.7z M9.3,10.9c-0.1-0.1-0.3-0.1-0.4-0.1L9.3,10l1.2,2
		c-0.2,0-0.4,0-0.6,0c0-0.1,0-0.2,0-0.2C10,11.4,9.7,11,9.3,10.9z M6.1,12c-0.2,0-0.4,0-0.6,0l1.2-2l0.4,0.8c-0.1,0-0.3,0-0.4,0.1
		C6.3,11,6,11.4,6.1,11.8C6.1,11.9,6.1,12,6.1,12L6.1,12z M7.5,10.8L6.8,9.7l1.2-2l1.2,2l-0.7,1.1c-0.1,0-0.2,0.1-0.3,0.2
		c-0.1,0.1-0.3,0.1-0.4,0C7.7,10.9,7.6,10.9,7.5,10.8L7.5,10.8z M10.9,12l1.2-2l1.1,1.8C13.1,11.8,11,12,10.9,12z M10.7,11.7l-1.2-2
		l1.2-2l1.2,2L10.7,11.7z M8,7.1L7.1,5.7c0.6,0,1.1,0,1.7,0L8,7.1z M6.5,9.7l-1.2,2l-1.2-2l1.2-2L6.5,9.7z M5.1,12
		c-0.2,0-2.2-0.2-2.2-0.2L4,10L5.1,12z M5,12.3L4,14.1l-1.2-2C2.8,12.1,4.9,12.3,5,12.3L5,12.3z M6.2,12.3c0.1,0.1,0.1,0.2,0.2,0.3
		l0.7,0.6l0,0l-0.5,0.9l-1-1.8C5.8,12.3,6,12.3,6.2,12.3L6.2,12.3z M8.8,13.2l0.7-0.6l0,0c0.1-0.1,0.2-0.2,0.2-0.3
		c0.2,0,0.4,0,0.6,0l-1,1.8L8.8,13.2L8.8,13.2z M13.2,12.1l-1.2,2L11,12.3C11.1,12.3,13.2,12.1,13.2,12.1z M13.4,11.7l-1.2-2l1.2-2
		l1.2,2L13.4,11.7z M10.7,7.1L9.9,5.7c0.5,0,1.6,0.1,1.6,0.1L10.7,7.1z M6.1,5.7L5.3,7.1L4.5,5.8C4.5,5.8,5.6,5.7,6.1,5.7z M3.8,9.7
		l-1.2,2l-1.2-2l1.2-2L3.8,9.7z M2.3,11.8l-1.2-0.1c-0.3,0-0.5-0.2-0.6-0.5L1.3,10L2.3,11.8z M0.5,12.8c0-0.2,0-0.4,0-0.6
		c0-0.1,0-0.3,0-0.5C0.6,11.8,0.9,12,1.1,12l1.3,0.1l-1.2,2L0.5,12.8z M2.6,12.4l1.2,2L3,15.7H2.2l-0.8-1.3L2.6,12.4z M4,14.7
		l0.6,1.1H3.3L4,14.7z M4.1,14.4l1.2-2l1.2,2l-0.8,1.3H4.9L4.1,14.4z M6.7,14.7l0.6,1.1H6L6.7,14.7z M6.8,14.4l0.6-1
		c0.4,0.2,0.8,0.2,1.2,0l0.6,1l-0.8,1.3H7.6L6.8,14.4z M9.3,14.7l0.6,1.1H8.7L9.3,14.7z M9.5,14.4l1.2-2l1.2,2l-0.8,1.3h-0.8
		L9.5,14.4z M12,14.7l0.6,1.1h-1.2L12,14.7z M12.2,14.4l1.2-2l1.2,2l-0.8,1.3H13L12.2,14.4z M13.6,12.1l1.3-0.1
		c0.2,0,0.4-0.1,0.6-0.2c0,0,0,0,0.1-0.1c0,0.4,0,0.7,0,1.1l-0.8,1.3L13.6,12.1z M15.5,6.6c0.1,0.4,0.2,0.9,0.2,1.3l-0.9,1.5l-1.2-2
		L14.4,6l0.5,0C15.2,6.1,15.4,6.3,15.5,6.6L15.5,6.6z M0.5,6.6c0.1-0.3,0.3-0.5,0.6-0.5l0.5,0l0.8,1.4l-1.2,2L0.3,7.9
		C0.4,7.4,0.4,7,0.5,6.6L0.5,6.6z M0.9,15.3l0.4-0.7l0.6,1.1H1.4C1.2,15.7,1,15.6,0.9,15.3L0.9,15.3z M15,15.6
		c-0.1,0.1-0.3,0.1-0.4,0.1h-0.4l0.6-1.1l0.4,0.7C15.1,15.4,15,15.5,15,15.6L15,15.6z"/>
</g>
</svg>
