<?xml version="1.0" encoding="utf-8"?>
<!-- Generator: Adobe Illustrator 19.1.1, SVG Export Plug-In . SVG Version: 6.00 Build 0)  -->
<svg version="1.1" id="Calque_1" xmlns="http://www.w3.org/2000/svg" xmlns:xlink="http://www.w3.org/1999/xlink" x="0px" y="0px"
	 viewBox="0 0 16 16" style="enable-background:new 0 0 16 16;" xml:space="preserve">
<style type="text/css">
	.st0{fill:#040504;}
</style>
<g id="_x32_-Magnifying_Glass">
	<path class="st0" d="M15.9,15.2l-3.6-3.6C13.3,10.3,14,8.7,14,7c0-1.9-0.7-3.6-2-4.9S8.8,0,7,0S3.4,0.7,2,2S0,5.1,0,7
		s0.7,3.6,2,4.9s3.1,2,4.9,2c1.7,0,3.3-0.6,4.6-1.7l3.6,3.6c0.1,0.1,0.2,0.1,0.3,0.1c0.1,0,0.2,0,0.3-0.1C16,15.7,16,15.4,15.9,15.2
		z M2.7,11.3C1.6,10.1,0.9,8.6,0.9,7s0.6-3.1,1.8-4.3C3.8,1.6,5.4,0.9,7,0.9s3.1,0.6,4.3,1.8C12.4,3.8,13,5.4,13,7s-0.6,3.1-1.8,4.3
		C10.1,12.4,8.6,13,7,13S3.8,12.4,2.7,11.3z"/>
</g>
</svg>
