<?xml version="1.0" encoding="utf-8"?>
<!-- Generator: Adobe Illustrator 19.1.1, SVG Export Plug-In . SVG Version: 6.00 Build 0)  -->
<svg version="1.1" id="Calque_1" xmlns="http://www.w3.org/2000/svg" xmlns:xlink="http://www.w3.org/1999/xlink" x="0px" y="0px"
	 viewBox="0 0 16 16" style="enable-background:new 0 0 16 16;" xml:space="preserve">
<style type="text/css">
	.st0{fill:#040504;}
</style>
<g>
	<g>
		<g>
			<path class="st0" d="M16,15.8c0-2.8-1.8-5.3-4.4-6.2c-0.1,0-0.2,0-0.3,0c-1,0.8-2.2,1.2-3.4,1.2s-2.4-0.4-3.4-1.2
				c-0.1-0.1-0.2-0.1-0.3,0C3.5,9.9,2.6,10.4,2,11.1c-1.3,1.3-2,3-2,4.7c0,0.1,0.1,0.3,0.3,0.3h15.5c0,0,0,0,0,0
				C15.9,16.1,16,16,16,15.8C16,15.8,16,15.8,16,15.8z M0.5,15.5c0.1-1.5,0.7-3,1.8-4.1c0.6-0.6,1.3-1.1,2.1-1.4
				c1.1,0.8,2.3,1.2,3.6,1.2s2.5-0.4,3.6-1.2c2.2,0.9,3.8,3,3.9,5.5H0.5z"/>
			<path class="st0" d="M8,10.2c2.8,0,5.1-2.3,5.1-5.1S10.8,0,8,0S2.9,2.3,2.9,5.1S5.2,10.2,8,10.2z M8,0.5c2.5,0,4.5,2,4.5,4.6
				s-2,4.6-4.5,4.6s-4.5-2-4.5-4.6S5.5,0.5,8,0.5z"/>
		</g>
	</g>
</g>
</svg>
