<?xml version="1.0" encoding="utf-8"?>
<!-- Generator: Adobe Illustrator 19.1.1, SVG Export Plug-In . SVG Version: 6.00 Build 0)  -->
<svg version="1.1" id="Calque_1" xmlns="http://www.w3.org/2000/svg" xmlns:xlink="http://www.w3.org/1999/xlink" x="0px" y="0px"
	 viewBox="0 0 48 48" style="enable-background:new 0 0 48 48;" xml:space="preserve">
<style type="text/css">
	.st0{fill:#040504;}
</style>
<path class="st0" d="M46.1,8H1.9C0.9,8,0,8.9,0,9.9v27.5c0,1.1,0.9,1.9,1.9,1.9h44.1c1.1,0,1.9-0.9,1.9-1.9V9.9
	C48,8.9,47.1,8,46.1,8z M0.8,13.8h46.5v3.8H0.8V13.8z M1.9,8.8h44.1c0.6,0,1.2,0.5,1.2,1.2V13H0.8V9.9C0.8,9.3,1.3,8.8,1.9,8.8
	L1.9,8.8z M46.1,38.6H1.9c-0.6,0-1.2-0.5-1.2-1.2v-19h46.5v19C47.2,38,46.7,38.6,46.1,38.6L46.1,38.6z"/>
<path class="st0" d="M21.2,30.7H6.3c-0.2,0-0.4,0.2-0.4,0.4s0.2,0.4,0.4,0.4h14.8c0.2,0,0.4-0.2,0.4-0.4S21.4,30.7,21.2,30.7z"/>
<path class="st0" d="M6.3,27.6h8.4c0.2,0,0.4-0.2,0.4-0.4s-0.2-0.4-0.4-0.4H6.3C6.1,26.8,6,27,6,27.2S6.1,27.6,6.3,27.6z"/>
<path class="st0" d="M41.1,25.8h-7.7c-0.5,0-1,0.4-1,1v4.7c0,0.5,0.4,1,1,1h7.7c0.5,0,1-0.4,1-1v-4.7C42,26.2,41.6,25.8,41.1,25.8z
	 M41.3,31.5c0,0.1-0.1,0.2-0.2,0.2h-7.7c-0.1,0-0.2-0.1-0.2-0.2v-4.7c0-0.1,0.1-0.2,0.2-0.2h7.7c0.1,0,0.2,0.1,0.2,0.2V31.5z"/>
</svg>
